<svg width="32" height="32" viewBox="0 0 32 32" fill="none" xmlns="http://www.w3.org/2000/svg">
<g clip-path="url(#clip0_2_3572)">
<path d="M14.6002 -0.0114746C8.86062 -0.0114746 4 4.87671 4 10.6675C4 16.7312 9.63369 22.9323 13.4233 27.2907C13.4377 27.3082 14.0503 27.9885 14.8049 27.9885H14.8719C15.6266 27.9885 16.2347 27.3082 16.25 27.2907C19.8064 23.2023 25 16.4613 25 10.6675C25 4.87671 21.2086 -0.0114746 14.6002 -0.0114746ZM14.9511 26.1169C14.9204 26.1475 14.8758 26.1817 14.8364 26.2101C14.7962 26.1826 14.7524 26.1476 14.7201 26.1169L14.2624 25.5906C10.6697 21.4689 5.75 15.8247 5.75 10.6675C5.75 5.8274 9.803 1.73809 14.6002 1.73809C20.5756 1.73809 23.25 6.22246 23.25 10.6675C23.25 14.5827 20.4574 19.781 14.9511 26.1169ZM14.5306 5.28709C11.6313 5.28709 9.2806 7.63778 9.2806 10.5371C9.2806 13.4364 11.6313 15.7871 14.5306 15.7871C17.4299 15.7871 19.7806 13.4364 19.7806 10.5371C19.7806 7.63778 17.4299 5.28709 14.5306 5.28709ZM14.5306 14.0371C12.6008 14.0371 10.9903 12.4288 10.9903 10.4986C10.9903 8.56878 12.5605 6.99859 14.4903 6.99859C16.4214 6.99859 17.9903 8.56878 17.9903 10.4986C17.9912 12.4288 16.4617 14.0371 14.5306 14.0371Z" fill="#303030"/>
</g>
<defs>
<clipPath id="clip0_2_3572">
<rect width="32" height="32" fill="white"/>
</clipPath>
</defs>
</svg>
