<svg width="32" height="32" viewBox="0 0 32 32" fill="none" xmlns="http://www.w3.org/2000/svg">
<path d="M26.5557 7.20361H5.44434C4.97775 7.20361 4.53027 7.38897 4.20034 7.71889C3.87041 8.04882 3.68506 8.4963 3.68506 8.96289V23.0371C3.68506 23.5037 3.87041 23.9512 4.20034 24.2811C4.53027 24.611 4.97775 24.7964 5.44434 24.7964H26.5557C27.0223 24.7964 27.4697 24.611 27.7997 24.2811C28.1296 23.9512 28.3149 23.5037 28.3149 23.0371V8.96289C28.3149 8.4963 28.1296 8.04882 27.7997 7.71889C27.4697 7.38897 27.0223 7.20361 26.5557 7.20361ZM24.6205 8.96289L16 14.9268L7.37954 8.96289H24.6205ZM5.44434 23.0371V9.76336L15.4986 16.7213C15.6459 16.8235 15.8208 16.8782 16 16.8782C16.1792 16.8782 16.3541 16.8235 16.5014 16.7213L26.5557 9.76336V23.0371H5.44434Z" fill="#303030"/>
</svg>
