<svg width="32" height="32" viewBox="0 0 32 32" fill="none" xmlns="http://www.w3.org/2000/svg">
<g clip-path="url(#clip0_2_3562)">
<path d="M22.9914 13.378H21.2434C21.2427 12.6828 20.9663 12.0163 20.4747 11.5248C19.9831 11.0332 19.3166 10.7567 18.6215 10.756V9.00806C19.78 9.00944 20.8907 9.47029 21.71 10.2895C22.5292 11.1087 22.99 12.2195 22.9914 13.378Z" fill="#303030"/>
<path d="M26.4874 13.378H24.7394C24.7375 11.756 24.0924 10.2009 22.9454 9.05398C21.7985 7.90705 20.2435 7.26189 18.6215 7.26004V5.51205C20.7069 5.51437 22.7063 6.34384 24.1809 7.81848C25.6556 9.29313 26.4851 11.2925 26.4874 13.378ZM24.7394 27.3618H24.5908C7.41689 26.3742 4.97845 11.8834 4.6376 7.46105C4.58432 6.76776 4.80862 6.08169 5.26115 5.55376C5.71369 5.02583 6.3574 4.69928 7.05068 4.64593C7.12002 4.64068 7.18965 4.63806 7.25957 4.63806H11.8655C12.2156 4.63772 12.5577 4.74251 12.8475 4.93886C13.1374 5.1352 13.3616 5.41405 13.4911 5.73929L14.8196 9.00802C14.9475 9.32575 14.9792 9.67407 14.9109 10.0097C14.8425 10.3453 14.677 10.6535 14.435 10.8958L12.5734 12.7749C12.863 14.4279 13.654 15.9519 14.8391 17.1401C16.0242 18.3283 17.5461 19.1233 19.1983 19.4172L21.0948 17.5382C21.3409 17.2988 21.6519 17.1372 21.9892 17.0735C22.3265 17.0098 22.675 17.0468 22.9914 17.1798L26.2864 18.4996C26.6067 18.6332 26.88 18.8591 27.0714 19.1486C27.2629 19.4382 27.3638 19.7781 27.3614 20.1252V24.7399C27.3614 25.4352 27.0851 26.1022 26.5934 26.5939C26.1017 27.0856 25.4348 27.3618 24.7394 27.3618ZM7.25957 6.38604C7.14479 6.3857 7.03108 6.40796 6.92491 6.45157C6.81874 6.49517 6.7222 6.55926 6.64079 6.64018C6.55939 6.72109 6.49473 6.81724 6.45049 6.92315C6.40625 7.02906 6.3833 7.14264 6.38296 7.25741C6.38296 7.28189 6.38383 7.30607 6.38558 7.32995C6.78761 12.504 9.36589 24.7399 24.6869 25.6138C24.9183 25.6277 25.1456 25.5491 25.319 25.3954C25.4924 25.2417 25.5977 25.0254 25.6116 24.794L25.6134 24.7399V20.1252L22.3184 18.8055L19.8101 21.2963L19.3906 21.2439C11.7868 20.2912 10.7555 12.6875 10.7555 12.6089L10.7031 12.1893L13.1852 9.68099L11.8742 6.38604H7.25957Z" fill="#303030"/>
</g>
<defs>
<clipPath id="clip0_2_3562">
<rect width="32" height="32" fill="white"/>
</clipPath>
</defs>
</svg>
