<svg width="45" height="19" viewBox="0 0 45 19" fill="none" xmlns="http://www.w3.org/2000/svg">
<g clip-path="url(#clip0_3_209)">
<path d="M45 9.77346C45 6.54088 43.45 3.99018 40.4875 3.99018C37.5124 3.99018 35.7124 6.54097 35.7124 9.74824C35.7124 13.549 37.8375 15.4683 40.8874 15.4683C42.375 15.4683 43.5 15.1274 44.35 14.6476V12.1221C43.5001 12.5515 42.525 12.8167 41.2875 12.8167C40.075 12.8167 39 12.3873 38.8625 10.8973H44.975C44.975 10.733 45 10.0765 45 9.77346ZM38.825 8.57388C38.825 7.14702 39.6875 6.55349 40.475 6.55349C41.2375 6.55349 42.05 7.14702 42.05 8.57388H38.825ZM30.8876 3.99018C29.6625 3.99018 28.875 4.57101 28.4375 4.97516L28.2749 4.19225H25.525V18.9155L28.65 18.2463L28.6625 14.6728C29.1125 15.0011 29.775 15.4683 30.875 15.4683C33.1125 15.4683 35.15 13.65 35.15 9.64721C35.1375 5.98527 33.075 3.99018 30.8875 3.99018H30.8876ZM30.1375 12.6903C29.4 12.6903 28.9624 12.4252 28.6625 12.0969L28.65 7.41213C28.975 7.04598 29.425 6.79348 30.1375 6.79348C31.275 6.79348 32.0625 8.08139 32.0625 9.73555C32.0625 11.4276 31.2875 12.6903 30.1375 12.6903ZM21.225 3.24518L24.3625 2.56331V0L21.225 0.669262V3.24518ZM21.225 4.20486H24.3625V15.2536H21.225V4.20486ZM17.8625 5.13923L17.6625 4.20486H14.9625V15.2536H18.0875V7.76576C18.8249 6.79348 20.075 6.97025 20.4625 7.10911V4.20486C20.0625 4.0533 18.6 3.7755 17.8625 5.13923ZM11.6125 1.46478L8.56248 2.12134L8.55 12.2357C8.55 14.1047 9.93753 15.4809 11.7875 15.4809C12.8125 15.4809 13.5625 15.2915 13.975 15.0642V12.5009C13.5751 12.6651 11.6 13.2459 11.6 11.3771V6.89443H13.975V4.20486H11.6L11.6125 1.46478ZM3.16248 7.41213C3.16248 6.91973 3.56247 6.73026 4.22508 6.73026C5.175 6.73026 6.37497 7.02077 7.32498 7.53847V4.57101C6.28752 4.15434 5.26254 3.99018 4.22508 3.99018C1.6875 3.99018 0 5.3287 0 7.56378C0 11.0488 4.74996 10.4932 4.74996 11.9959C4.74996 12.5767 4.25004 12.7661 3.54999 12.7661C2.51253 12.7661 1.18749 12.3368 0.137461 11.7559V14.7612C1.29999 15.2663 2.475 15.4809 3.54999 15.4809C6.14997 15.4809 7.93749 14.1804 7.93749 11.9201C7.92501 8.15722 3.16248 8.82639 3.16248 7.41213Z" fill="#303030"/>
</g>
<defs>
<clipPath id="clip0_3_209">
<rect width="45" height="19" fill="white"/>
</clipPath>
</defs>
</svg>
